<svg xmlns="http://www.w3.org/2000/svg" xmlns:v="https://svgstorm.com"
viewBox = "0 0 500 500"
width="500"
height="500">
<g fill="None" fill-opacity="0.0" stroke="#FEFEFE" stroke-opacity="1.00" stroke-width="0.3"><path d="
M 0.00 500.00 
L 500.00 500.00
L 500.00 0.00
L 0.00 0.00
L 0.00 500.00
M 344.00 239.00 
C 362.00 222.92 384.71 237.87 385.00 260.00 C 385.29 282.13 363.28 298.10 344.00 283.00
C 339.00 296.61 329.24 283.47 332.00 274.00 C 334.76 264.53 329.63 248.70 332.00 240.00 C 334.37 231.30 326.28 214.54 337.08 212.08 C 347.87 209.61 343.14 233.50 344.00 239.00
M 130.00 214.00 
C 137.22 216.71 131.76 230.25 123.78 226.22 C 115.80 222.20 120.90 210.58 130.00 214.00
M 158.00 239.00 
C 163.07 236.76 175.42 223.31 180.30 235.70 C 185.18 248.08 165.58 238.88 161.25 246.25 C 156.93 253.63 156.35 265.43 158.00 276.00 C 159.65 286.57 146.49 292.84 145.00 280.00 C 143.52 267.16 147.14 258.71 145.00 247.00 C 142.86 235.29 151.99 227.72 158.00 239.00
M 249.00 232.00 
C 254.08 232.83 267.13 240.46 260.25 246.25 C 253.36 252.03 247.21 239.72 238.98 243.98 C 230.74 248.23 227.79 254.49 228.00 263.00 C 228.21 271.51 236.01 276.53 242.07 277.93 C 248.13 279.32 262.15 269.25 262.92 279.08 C 263.70 288.90 250.24 287.53 244.00 289.00 C 237.76 290.47 228.02 286.13 223.25 280.75 C 218.47 275.37 214.63 265.67 216.00 258.00 C 217.37 250.33 218.96 243.41 225.25 238.25 C 231.54 233.08 240.63 230.64 249.00 232.00
M 406.00 265.00 
C 408.87 272.27 417.85 284.57 428.67 276.67 C 439.49 268.78 446.26 281.50 434.30 286.30 C 422.35 291.11 414.80 289.74 404.92 284.08 C 395.03 278.42 393.64 267.12 394.00 257.00 C 394.36 246.88 400.47 239.95 408.70 234.70 C 416.93 229.45 430.96 233.21 436.75 239.25 C 442.54 245.29 451.66 258.43 442.92 263.92 C 434.17 269.40 415.99 262.06 406.00 265.00
M 107.00 237.00 
C 110.04 244.46 108.77 259.47 108.00 268.00
C 114.72 272.29 119.00 281.46 113.23 288.23 C 107.46 295.00 96.07 292.45 93.00 285.00
C 76.14 295.75 50.40 283.62 50.00 263.00
C 60.67 263.00 71.33 263.00 82.00 263.00
C 81.88 266.42 70.28 270.92 73.34 274.68 C 76.40 278.44 80.55 268.87 84.25 267.25 C 87.95 265.62 91.92 257.52 86.25 255.75 C 80.57 253.99 80.86 244.95 74.97 246.03 C 69.09 247.10 79.80 256.28 81.00 258.00
C 80.97 259.27 70.42 259.74 67.00 259.00 C 63.58 258.26 52.05 261.09 50.00 258.00
C 47.25 253.86 55.02 243.90 58.25 240.25 C 61.49 236.60 71.11 232.59 77.00 233.00 C 82.89 233.41 92.42 233.85 96.00 240.00
C 94.96 233.78 105.56 229.30 107.00 237.00
M 129.00 233.00 
C 136.17 235.59 132.70 248.95 133.00 256.00 C 133.30 263.05 133.96 274.22 132.67 282.67 C 131.38 291.12 118.35 287.58 120.00 279.00 C 121.65 270.42 119.55 259.09 120.00 252.00 C 120.45 244.91 117.95 229.02 129.00 233.00
M 318.00 238.00 
C 321.12 245.66 319.27 260.20 318.00 268.00
C 317.55 276.36 313.56 284.55 304.77 287.77 C 295.98 291.00 286.40 288.87 278.75 283.25 C 271.10 277.63 272.62 264.63 272.00 257.00 C 271.38 249.37 271.13 229.53 280.22 233.78 C 289.31 238.03 283.96 254.35 284.00 263.00 C 284.04 271.65 291.63 282.06 300.68 276.68 C 309.72 271.30 307.52 257.45 306.00 249.00 C 304.48 240.55 312.65 224.85 318.00 238.00 Z"/>
</g>
<g fill="None" fill-opacity="0.0" stroke="#000000" stroke-opacity="1.00" stroke-width="0.3"><path d="
M 344.00 239.00 
C 343.14 233.50 347.87 209.61 337.08 212.08 C 326.28 214.54 334.37 231.30 332.00 240.00 C 329.63 248.70 334.76 264.53 332.00 274.00 C 329.24 283.47 339.00 296.61 344.00 283.00
C 363.28 298.10 385.29 282.13 385.00 260.00 C 384.71 237.87 362.00 222.92 344.00 239.00
M 361.00 243.00 
C 379.85 245.91 376.84 280.33 357.00 278.00 C 337.16 275.66 341.06 239.92 361.00 243.00 Z"/>
</g>
<g fill="None" fill-opacity="0.0" stroke="#27C36E" stroke-opacity="1.00" stroke-width="0.3"><path d="
M 130.00 214.00 
C 120.90 210.58 115.80 222.20 123.78 226.22 C 131.76 230.25 137.22 216.71 130.00 214.00 Z"/>
</g>
<g fill="None" fill-opacity="0.0" stroke="#1CC16A" stroke-opacity="1.00" stroke-width="0.3"><path d="
M 158.00 239.00 
C 151.99 227.72 142.86 235.29 145.00 247.00 C 147.14 258.71 143.52 267.16 145.00 280.00 C 146.49 292.84 159.65 286.57 158.00 276.00 C 156.35 265.43 156.93 253.63 161.25 246.25 C 165.58 238.88 185.18 248.08 180.30 235.70 C 175.42 223.31 163.07 236.76 158.00 239.00 Z"/>
</g>
<g fill="None" fill-opacity="0.0" stroke="#000000" stroke-opacity="1.00" stroke-width="0.3"><path d="
M 249.00 232.00 
C 240.63 230.64 231.54 233.08 225.25 238.25 C 218.96 243.41 217.37 250.33 216.00 258.00 C 214.63 265.67 218.47 275.37 223.25 280.75 C 228.02 286.13 237.76 290.47 244.00 289.00 C 250.24 287.53 263.70 288.90 262.92 279.08 C 262.15 269.25 248.13 279.32 242.07 277.93 C 236.01 276.53 228.21 271.51 228.00 263.00 C 227.79 254.49 230.74 248.23 238.98 243.98 C 247.21 239.72 253.36 252.03 260.25 246.25 C 267.13 240.46 254.08 232.83 249.00 232.00 Z"/>
</g>
<g fill="None" fill-opacity="0.0" stroke="#000000" stroke-opacity="1.00" stroke-width="0.3"><path d="
M 406.00 265.00 
C 415.99 262.06 434.17 269.40 442.92 263.92 C 451.66 258.43 442.54 245.29 436.75 239.25 C 430.96 233.21 416.93 229.45 408.70 234.70 C 400.47 239.95 394.36 246.88 394.00 257.00 C 393.64 267.12 395.03 278.42 404.92 284.08 C 414.80 289.74 422.35 291.11 434.30 286.30 C 446.26 281.50 439.49 268.78 428.67 276.67 C 417.85 284.57 408.87 272.27 406.00 265.00
M 433.00 254.00 
C 424.50 256.27 414.92 254.38 406.00 255.00
C 406.34 239.81 431.13 239.57 433.00 254.00 Z"/>
</g>
<g fill="None" fill-opacity="0.0" stroke="#13BF67" stroke-opacity="1.00" stroke-width="0.3"><path d="
M 50.00 258.00 
C 59.58 260.29 71.67 254.95 81.00 258.00
C 79.80 256.28 69.09 247.10 74.97 246.03 C 80.86 244.95 80.57 253.99 86.25 255.75 C 91.92 257.52 87.95 265.62 84.25 267.25 C 80.55 268.87 76.40 278.44 73.34 274.68 C 70.28 270.92 81.88 266.42 82.00 263.00
C 71.33 263.00 60.67 263.00 50.00 263.00
C 50.40 283.62 76.14 295.75 93.00 285.00
C 89.01 275.31 97.33 267.08 107.00 268.00
C 106.12 258.22 109.39 246.48 107.00 237.00
C 105.56 229.30 94.96 233.78 96.00 240.00
C 92.42 233.85 82.89 233.41 77.00 233.00 C 71.11 232.59 61.49 236.60 58.25 240.25 C 55.02 243.90 47.25 253.86 50.00 258.00 Z"/>
</g>
<g fill="None" fill-opacity="0.0" stroke="#1FC26B" stroke-opacity="1.00" stroke-width="0.3"><path d="
M 129.00 233.00 
C 117.95 229.02 120.45 244.91 120.00 252.00 C 119.55 259.09 121.65 270.42 120.00 279.00 C 118.35 287.58 131.38 291.12 132.67 282.67 C 133.96 274.22 133.30 263.05 133.00 256.00 C 132.70 248.95 136.17 235.59 129.00 233.00 Z"/>
</g>
<g fill="None" fill-opacity="0.0" stroke="#000000" stroke-opacity="1.00" stroke-width="0.3"><path d="
M 318.00 268.00 
C 318.47 259.32 320.11 246.39 318.00 238.00
C 312.65 224.85 304.48 240.55 306.00 249.00 C 307.52 257.45 309.72 271.30 300.68 276.68 C 291.63 282.06 284.04 271.65 284.00 263.00 C 283.96 254.35 289.31 238.03 280.22 233.78 C 271.13 229.53 271.38 249.37 272.00 257.00 C 272.62 264.63 271.10 277.63 278.75 283.25 C 286.40 288.87 295.98 291.00 304.77 287.77 C 313.56 284.55 317.55 276.36 318.00 268.00 Z"/>
</g>
<g fill="None" fill-opacity="0.0" stroke="#E2F8ED" stroke-opacity="1.00" stroke-width="0.3"><path d="
M 107.00 268.00 
C 107.50 268.05 108.00 268.00 108.00 268.00
C 108.77 259.47 110.04 244.46 107.00 237.00
C 109.39 246.48 106.12 258.22 107.00 268.00 Z"/>
</g>
<g fill="None" fill-opacity="0.0" stroke="#838383" stroke-opacity="1.00" stroke-width="0.3"><path d="
M 318.00 268.00 
C 319.27 260.20 321.12 245.66 318.00 238.00
C 320.11 246.39 318.47 259.32 318.00 268.00 Z"/>
</g>
<g fill="None" fill-opacity="0.0" stroke="#FAFAFA" stroke-opacity="1.00" stroke-width="0.3"><path d="
M 361.00 243.00 
C 341.06 239.92 337.16 275.66 357.00 278.00 C 376.84 280.33 379.85 245.91 361.00 243.00 Z"/>
</g>
<g fill="None" fill-opacity="0.0" stroke="#EBEBEB" stroke-opacity="1.00" stroke-width="0.3"><path d="
M 433.00 254.00 
C 431.13 239.57 406.34 239.81 406.00 255.00
C 414.92 254.38 424.50 256.27 433.00 254.00 Z"/>
</g>
<g fill="None" fill-opacity="0.0" stroke="#8AE1B7" stroke-opacity="1.00" stroke-width="0.3"><path d="
M 81.00 258.00 
C 71.67 254.95 59.58 260.29 50.00 258.00
C 52.05 261.09 63.58 258.26 67.00 259.00 C 70.42 259.74 80.97 259.27 81.00 258.00 Z"/>
</g>
<g fill="None" fill-opacity="0.0" stroke="#117675" stroke-opacity="1.00" stroke-width="0.3"><path d="
M 93.00 285.00 
C 96.07 292.45 107.46 295.00 113.23 288.23 C 119.00 281.46 114.72 272.29 108.00 268.00
C 108.00 268.00 107.50 268.05 107.00 268.00
C 97.33 267.08 89.01 275.31 93.00 285.00
M 107.00 274.00 
C 114.27 276.72 108.79 290.65 101.33 286.67 C 93.87 282.69 99.26 271.10 107.00 274.00 Z"/>
</g>
<g fill="None" fill-opacity="0.0" stroke="#00BD63" stroke-opacity="1.00" stroke-width="0.3"><path d="
M 107.00 274.00 
C 99.26 271.10 93.87 282.69 101.33 286.67 C 108.79 290.65 114.27 276.72 107.00 274.00 Z"/>
</g>
<g fill="#FEFEFE" fill-opacity="1.00" stroke="None">
<path d="
M 0.00 500.00 
L 500.00 500.00
L 500.00 0.00
L 0.00 0.00
L 0.00 500.00
M 344.00 239.00 
C 362.00 222.92 384.71 237.87 385.00 260.00 C 385.29 282.13 363.28 298.10 344.00 283.00
C 339.00 296.61 329.24 283.47 332.00 274.00 C 334.76 264.53 329.63 248.70 332.00 240.00 C 334.37 231.30 326.28 214.54 337.08 212.08 C 347.87 209.61 343.14 233.50 344.00 239.00
M 130.00 214.00 
C 137.22 216.71 131.76 230.25 123.78 226.22 C 115.80 222.20 120.90 210.58 130.00 214.00
M 158.00 239.00 
C 163.07 236.76 175.42 223.31 180.30 235.70 C 185.18 248.08 165.58 238.88 161.25 246.25 C 156.93 253.63 156.35 265.43 158.00 276.00 C 159.65 286.57 146.49 292.84 145.00 280.00 C 143.52 267.16 147.14 258.71 145.00 247.00 C 142.86 235.29 151.99 227.72 158.00 239.00
M 249.00 232.00 
C 254.08 232.83 267.13 240.46 260.25 246.25 C 253.36 252.03 247.21 239.72 238.98 243.98 C 230.74 248.23 227.79 254.49 228.00 263.00 C 228.21 271.51 236.01 276.53 242.07 277.93 C 248.13 279.32 262.15 269.25 262.92 279.08 C 263.70 288.90 250.24 287.53 244.00 289.00 C 237.76 290.47 228.02 286.13 223.25 280.75 C 218.47 275.37 214.63 265.67 216.00 258.00 C 217.37 250.33 218.96 243.41 225.25 238.25 C 231.54 233.08 240.63 230.64 249.00 232.00
M 406.00 265.00 
C 408.87 272.27 417.85 284.57 428.67 276.67 C 439.49 268.78 446.26 281.50 434.30 286.30 C 422.35 291.11 414.80 289.74 404.92 284.08 C 395.03 278.42 393.64 267.12 394.00 257.00 C 394.36 246.88 400.47 239.95 408.70 234.70 C 416.93 229.45 430.96 233.21 436.75 239.25 C 442.54 245.29 451.66 258.43 442.92 263.92 C 434.17 269.40 415.99 262.06 406.00 265.00
M 107.00 237.00 
C 110.04 244.46 108.77 259.47 108.00 268.00
C 114.72 272.29 119.00 281.46 113.23 288.23 C 107.46 295.00 96.07 292.45 93.00 285.00
C 76.14 295.75 50.40 283.62 50.00 263.00
C 60.67 263.00 71.33 263.00 82.00 263.00
C 81.88 266.42 70.28 270.92 73.34 274.68 C 76.40 278.44 80.55 268.87 84.25 267.25 C 87.95 265.62 91.92 257.52 86.25 255.75 C 80.57 253.99 80.86 244.95 74.97 246.03 C 69.09 247.10 79.80 256.28 81.00 258.00
C 80.97 259.27 70.42 259.74 67.00 259.00 C 63.58 258.26 52.05 261.09 50.00 258.00
C 47.25 253.86 55.02 243.90 58.25 240.25 C 61.49 236.60 71.11 232.59 77.00 233.00 C 82.89 233.41 92.42 233.85 96.00 240.00
C 94.96 233.78 105.56 229.30 107.00 237.00
M 129.00 233.00 
C 136.17 235.59 132.70 248.95 133.00 256.00 C 133.30 263.05 133.96 274.22 132.67 282.67 C 131.38 291.12 118.35 287.58 120.00 279.00 C 121.65 270.42 119.55 259.09 120.00 252.00 C 120.45 244.91 117.95 229.02 129.00 233.00
M 318.00 238.00 
C 321.12 245.66 319.27 260.20 318.00 268.00
C 317.55 276.36 313.56 284.55 304.77 287.77 C 295.98 291.00 286.40 288.87 278.75 283.25 C 271.10 277.63 272.62 264.63 272.00 257.00 C 271.38 249.37 271.13 229.53 280.22 233.78 C 289.31 238.03 283.96 254.35 284.00 263.00 C 284.04 271.65 291.63 282.06 300.68 276.68 C 309.72 271.30 307.52 257.45 306.00 249.00 C 304.48 240.55 312.65 224.85 318.00 238.00 Z"/>
</g>
<g fill="#000000" fill-opacity="1.00" stroke="None">
<path d="
M 344.00 239.00 
C 343.14 233.50 347.87 209.61 337.08 212.08 C 326.28 214.54 334.37 231.30 332.00 240.00 C 329.63 248.70 334.76 264.53 332.00 274.00 C 329.24 283.47 339.00 296.61 344.00 283.00
C 363.28 298.10 385.29 282.13 385.00 260.00 C 384.71 237.87 362.00 222.92 344.00 239.00
M 361.00 243.00 
C 379.85 245.91 376.84 280.33 357.00 278.00 C 337.16 275.66 341.06 239.92 361.00 243.00 Z"/>
</g>
<g fill="#27C36E" fill-opacity="1.00" stroke="None">
<path d="
M 130.00 214.00 
C 120.90 210.58 115.80 222.20 123.78 226.22 C 131.76 230.25 137.22 216.71 130.00 214.00 Z"/>
</g>
<g fill="#1CC16A" fill-opacity="1.00" stroke="None">
<path d="
M 158.00 239.00 
C 151.99 227.72 142.86 235.29 145.00 247.00 C 147.14 258.71 143.52 267.16 145.00 280.00 C 146.49 292.84 159.65 286.57 158.00 276.00 C 156.35 265.43 156.93 253.63 161.25 246.25 C 165.58 238.88 185.18 248.08 180.30 235.70 C 175.42 223.31 163.07 236.76 158.00 239.00 Z"/>
</g>
<g fill="#000000" fill-opacity="1.00" stroke="None">
<path d="
M 249.00 232.00 
C 240.63 230.64 231.54 233.08 225.25 238.25 C 218.96 243.41 217.37 250.33 216.00 258.00 C 214.63 265.67 218.47 275.37 223.25 280.75 C 228.02 286.13 237.76 290.47 244.00 289.00 C 250.24 287.53 263.70 288.90 262.92 279.08 C 262.15 269.25 248.13 279.32 242.07 277.93 C 236.01 276.53 228.21 271.51 228.00 263.00 C 227.79 254.49 230.74 248.23 238.98 243.98 C 247.21 239.72 253.36 252.03 260.25 246.25 C 267.13 240.46 254.08 232.83 249.00 232.00 Z"/>
</g>
<g fill="#000000" fill-opacity="1.00" stroke="None">
<path d="
M 406.00 265.00 
C 415.99 262.06 434.17 269.40 442.92 263.92 C 451.66 258.43 442.54 245.29 436.75 239.25 C 430.96 233.21 416.93 229.45 408.70 234.70 C 400.47 239.95 394.36 246.88 394.00 257.00 C 393.64 267.12 395.03 278.42 404.92 284.08 C 414.80 289.74 422.35 291.11 434.30 286.30 C 446.26 281.50 439.49 268.78 428.67 276.67 C 417.85 284.57 408.87 272.27 406.00 265.00
M 433.00 254.00 
C 424.50 256.27 414.92 254.38 406.00 255.00
C 406.34 239.81 431.13 239.57 433.00 254.00 Z"/>
</g>
<g fill="#13BF67" fill-opacity="1.00" stroke="None">
<path d="
M 50.00 258.00 
C 59.58 260.29 71.67 254.95 81.00 258.00
C 79.80 256.28 69.09 247.10 74.97 246.03 C 80.86 244.95 80.57 253.99 86.25 255.75 C 91.92 257.52 87.95 265.62 84.25 267.25 C 80.55 268.87 76.40 278.44 73.34 274.68 C 70.28 270.92 81.88 266.42 82.00 263.00
C 71.33 263.00 60.67 263.00 50.00 263.00
C 50.40 283.62 76.14 295.75 93.00 285.00
C 89.01 275.31 97.33 267.08 107.00 268.00
C 106.12 258.22 109.39 246.48 107.00 237.00
C 105.56 229.30 94.96 233.78 96.00 240.00
C 92.42 233.85 82.89 233.41 77.00 233.00 C 71.11 232.59 61.49 236.60 58.25 240.25 C 55.02 243.90 47.25 253.86 50.00 258.00 Z"/>
</g>
<g fill="#1FC26B" fill-opacity="1.00" stroke="None">
<path d="
M 129.00 233.00 
C 117.95 229.02 120.45 244.91 120.00 252.00 C 119.55 259.09 121.65 270.42 120.00 279.00 C 118.35 287.58 131.38 291.12 132.67 282.67 C 133.96 274.22 133.30 263.05 133.00 256.00 C 132.70 248.95 136.17 235.59 129.00 233.00 Z"/>
</g>
<g fill="#000000" fill-opacity="1.00" stroke="None">
<path d="
M 318.00 268.00 
C 318.47 259.32 320.11 246.39 318.00 238.00
C 312.65 224.85 304.48 240.55 306.00 249.00 C 307.52 257.45 309.72 271.30 300.68 276.68 C 291.63 282.06 284.04 271.65 284.00 263.00 C 283.96 254.35 289.31 238.03 280.22 233.78 C 271.13 229.53 271.38 249.37 272.00 257.00 C 272.62 264.63 271.10 277.63 278.75 283.25 C 286.40 288.87 295.98 291.00 304.77 287.77 C 313.56 284.55 317.55 276.36 318.00 268.00 Z"/>
</g>
<g fill="#E2F8ED" fill-opacity="1.00" stroke="None">
<path d="
M 107.00 268.00 
C 107.50 268.05 108.00 268.00 108.00 268.00
C 108.77 259.47 110.04 244.46 107.00 237.00
C 109.39 246.48 106.12 258.22 107.00 268.00 Z"/>
</g>
<g fill="#838383" fill-opacity="1.00" stroke="None">
<path d="
M 318.00 268.00 
C 319.27 260.20 321.12 245.66 318.00 238.00
C 320.11 246.39 318.47 259.32 318.00 268.00 Z"/>
</g>
<g fill="#FAFAFA" fill-opacity="1.00" stroke="None">
<path d="
M 361.00 243.00 
C 341.06 239.92 337.16 275.66 357.00 278.00 C 376.84 280.33 379.85 245.91 361.00 243.00 Z"/>
</g>
<g fill="#EBEBEB" fill-opacity="1.00" stroke="None">
<path d="
M 433.00 254.00 
C 431.13 239.57 406.34 239.81 406.00 255.00
C 414.92 254.38 424.50 256.27 433.00 254.00 Z"/>
</g>
<g fill="#8AE1B7" fill-opacity="1.00" stroke="None">
<path d="
M 81.00 258.00 
C 71.67 254.95 59.58 260.29 50.00 258.00
C 52.05 261.09 63.58 258.26 67.00 259.00 C 70.42 259.74 80.97 259.27 81.00 258.00 Z"/>
</g>
<g fill="#117675" fill-opacity="1.00" stroke="None">
<path d="
M 93.00 285.00 
C 96.07 292.45 107.46 295.00 113.23 288.23 C 119.00 281.46 114.72 272.29 108.00 268.00
C 108.00 268.00 107.50 268.05 107.00 268.00
C 97.33 267.08 89.01 275.31 93.00 285.00
M 107.00 274.00 
C 114.27 276.72 108.79 290.65 101.33 286.67 C 93.87 282.69 99.26 271.10 107.00 274.00 Z"/>
</g>
<g fill="#00BD63" fill-opacity="1.00" stroke="None">
<path d="
M 107.00 274.00 
C 99.26 271.10 93.87 282.69 101.33 286.67 C 108.79 290.65 114.27 276.72 107.00 274.00 Z"/>
</g>
</svg>